<svg width="72" height="41" viewBox="0 0 72 41" fill="none" xmlns="http://www.w3.org/2000/svg">
<path d="M51.1364 41L47.6364 37.5L62.0455 23.1364H0V18.1364H62.0455L47.6364 3.72727L51.1364 0.272728L71.5 20.6364L51.1364 41Z" fill="#E76101"/>
<path d="M51.1364 41L50.4293 41.7071L51.1364 42.4142L51.8435 41.7071L51.1364 41ZM47.6364 37.5L46.9304 36.7918L46.221 37.4989L46.9293 38.2071L47.6364 37.5ZM62.0455 23.1364L62.7514 23.8446L64.4651 22.1364H62.0455V23.1364ZM0 23.1364H-1V24.1364H0V23.1364ZM0 18.1364V17.1364H-1V18.1364H0ZM62.0455 18.1364V19.1364H64.4597L62.7526 17.4293L62.0455 18.1364ZM47.6364 3.72727L46.9339 3.01556L46.2175 3.72264L46.9293 4.43438L47.6364 3.72727ZM51.1364 0.272728L51.8435 -0.434379L51.141 -1.13688L50.4339 -0.438985L51.1364 0.272728ZM71.5 20.6364L72.2071 21.3435L72.9142 20.6364L72.2071 19.9293L71.5 20.6364ZM51.8435 40.2929L48.3435 36.7929L46.9293 38.2071L50.4293 41.7071L51.8435 40.2929ZM48.3424 38.2082L62.7514 23.8446L61.3395 22.4281L46.9304 36.7918L48.3424 38.2082ZM62.0455 22.1364H0V24.1364H62.0455V22.1364ZM1 23.1364V18.1364H-1V23.1364H1ZM0 19.1364H62.0455V17.1364H0V19.1364ZM62.7526 17.4293L48.3435 3.02017L46.9293 4.43438L61.3383 18.8435L62.7526 17.4293ZM48.3388 4.43899L51.8388 0.984441L50.4339 -0.438985L46.9339 3.01556L48.3388 4.43899ZM50.4293 0.979835L70.7929 21.3435L72.2071 19.9293L51.8435 -0.434379L50.4293 0.979835ZM70.7929 19.9293L50.4293 40.2929L51.8435 41.7071L72.2071 21.3435L70.7929 19.9293Z" fill="black"/>
</svg>
